<?xml version="1.0" standalone="no"?>
<!DOCTYPE svg PUBLIC "-//W3C//DTD SVG 20010904//EN"
 "http://www.w3.org/TR/2001/REC-SVG-20010904/DTD/svg10.dtd">
<svg version="1.0" xmlns="http://www.w3.org/2000/svg"
 width="512.000000pt" height="512.000000pt" viewBox="0 0 512.000000 512.000000"
 preserveAspectRatio="xMidYMid meet">
<metadata>
Created by potrace 1.11, written by Peter Selinger 2001-2013
</metadata>
<g transform="translate(0.000000,512.000000) scale(0.100000,-0.100000)"
fill="#000000" stroke="none">
<path d="M2427 5084 c-1 -2 -40 -5 -86 -9 -46 -4 -91 -8 -100 -10 -9 -1 -41
-6 -71 -11 -30 -4 -57 -8 -60 -9 -3 -1 -25 -5 -50 -10 -58 -11 -52 -10 -75
-18 -11 -3 -32 -8 -46 -11 -90 -15 -337 -109 -490 -186 -416 -209 -776 -551
-1011 -960 -60 -104 -138 -265 -138 -284 0 -7 -4 -16 -9 -21 -23 -26 -114
-329 -136 -455 -33 -188 -40 -268 -39 -470 0 -145 5 -235 18 -320 40 -274 108
-492 231 -745 156 -321 382 -603 662 -828 82 -66 259 -187 273 -187 5 0 10 -3
10 -7 0 -5 10 -13 23 -19 85 -41 125 -67 121 -79 -3 -7 -1 -16 5 -20 7 -3 8 0
5 9 -4 11 0 16 10 16 9 0 16 -8 16 -17 0 -15 2 -16 10 -3 6 10 10 11 10 3 0
-7 3 -12 8 -11 14 4 52 -13 52 -23 0 -6 5 -7 12 -3 8 5 9 2 4 -11 -5 -15 -4
-16 8 -6 16 14 50 1 59 -21 4 -9 6 -10 6 -1 1 9 9 9 34 1 17 -6 36 -15 41 -19
6 -5 18 -9 29 -9 10 0 16 -4 13 -8 -3 -4 11 -9 31 -9 20 -1 39 -6 43 -13 4 -6
11 -10 16 -9 20 3 45 -1 41 -9 -3 -4 9 -6 26 -6 25 1 35 -4 45 -25 12 -24 13
-24 8 -3 -4 19 -1 22 12 17 9 -3 29 -9 44 -12 17 -3 25 -10 21 -17 -4 -6 0 -5
9 2 9 7 19 9 22 4 3 -5 15 -8 28 -7 13 1 26 -2 29 -7 8 -12 51 -19 44 -7 -4 5
-2 9 4 9 5 0 12 -6 14 -12 4 -9 6 -10 6 -1 1 8 10 9 31 3 17 -5 30 -6 30 -2 0
4 5 0 10 -8 5 -8 10 -10 10 -4 0 13 49 6 51 -7 1 -5 2 -18 3 -28 0 -11 4 -22
7 -26 4 -3 5 10 3 29 -2 27 1 36 12 36 9 0 12 -5 8 -12 -5 -7 -3 -8 7 -2 21
13 59 13 52 0 -4 -6 2 -4 12 4 17 14 18 13 13 -5 -4 -15 0 -21 13 -21 13 0 15
4 8 12 -7 8 -6 14 1 19 5 3 10 3 10 -2 0 -4 20 -8 44 -8 28 0 42 3 38 10 -3 5
6 2 21 -8 16 -10 25 -12 22 -5 -4 9 6 13 30 14 19 1 35 -3 35 -7 0 -5 5 -9 11
-9 5 0 7 5 4 10 -4 7 8 11 32 10 73 -1 85 0 95 6 19 12 83 12 90 0 5 -7 8 -6
8 4 0 11 10 16 33 15 17 0 43 5 56 12 20 10 28 10 40 0 10 -8 13 -8 8 -1 -4 7
3 14 18 16 16 4 22 1 18 -6 -4 -6 1 -5 10 3 9 7 24 11 32 7 9 -3 13 -2 10 4
-3 6 -3 10 2 11 4 0 19 3 33 5 19 4 22 2 12 -8 -15 -15 -16 -28 -2 -28 5 0 9
3 8 7 0 5 2 16 7 26 6 14 10 15 21 6 12 -10 13 -9 8 5 -4 11 -1 16 11 16 10 0
14 -5 10 -12 -4 -7 0 -5 7 4 8 9 25 19 39 22 13 2 46 14 72 25 27 12 57 21 68
21 10 0 19 4 19 9 0 17 35 17 47 1 10 -13 12 -12 8 8 -2 12 1 22 6 22 6 0 37
13 69 29 40 20 60 26 64 18 2 -7 5 -4 5 6 1 9 8 17 16 17 8 0 15 5 15 11 0 5
4 8 8 5 5 -3 19 4 30 14 12 11 32 24 45 29 13 5 71 42 128 82 380 265 658 588
841 979 41 86 71 157 74 170 0 3 6 19 13 35 17 41 62 183 67 213 3 14 7 29 9
32 2 4 7 20 9 36 3 16 8 40 11 54 16 72 26 130 31 170 3 25 7 56 10 70 10 45
13 413 4 485 -5 39 -11 90 -14 115 -80 651 -471 1288 -1026 1671 -302 209
-701 368 -1015 404 -27 4 -57 8 -65 10 -43 12 -424 28 -433 19z"/>
<path d="M3686 458 c3 -5 10 -6 15 -3 13 9 11 12 -6 12 -8 0 -12 -4 -9 -9z"/>
<path d="M3615 430 c-3 -6 1 -7 9 -4 18 7 21 14 7 14 -6 0 -13 -4 -16 -10z"/>
<path d="M3640 420 c-9 -6 -10 -10 -3 -10 6 0 15 5 18 10 8 12 4 12 -15 0z"/>
<path d="M1426 402 c-3 -5 1 -9 9 -9 8 0 12 4 9 9 -3 4 -7 8 -9 8 -2 0 -6 -4
-9 -8z"/>
<path d="M1485 399 c-3 -4 2 -6 10 -5 21 3 28 13 10 13 -9 0 -18 -4 -20 -8z"/>
<path d="M3545 399 c-4 -6 -5 -12 -2 -15 2 -3 7 2 10 11 7 17 1 20 -8 4z"/>
<path d="M3606 402 c-3 -5 1 -9 9 -9 8 0 12 4 9 9 -3 4 -7 8 -9 8 -2 0 -6 -4
-9 -8z"/>
<path d="M1616 353 c-6 -14 -5 -15 5 -6 7 7 10 15 7 18 -3 3 -9 -2 -12 -12z"/>
<path d="M3475 360 c-2 -3 5 -7 16 -7 10 -1 19 2 19 6 0 9 -29 10 -35 1z"/>
<path d="M3550 355 c5 -7 6 -16 2 -21 -4 -5 -3 -5 2 -1 15 12 15 34 0 34 -9 0
-11 -4 -4 -12z"/>
<path d="M3615 351 c-3 -5 -2 -12 3 -15 5 -3 9 1 9 9 0 17 -3 19 -12 6z"/>
<path d="M1485 340 c-3 -6 1 -7 9 -4 18 7 21 14 7 14 -6 0 -13 -4 -16 -10z"/>
<path d="M1666 342 c-2 -4 4 -8 14 -8 10 0 16 4 14 8 -3 4 -9 8 -14 8 -5 0
-11 -4 -14 -8z"/>
<path d="M3415 340 c6 -9 4 -12 -7 -8 -8 4 -15 1 -15 -6 0 -17 25 -16 31 0 3
8 0 16 -6 20 -7 5 -8 2 -3 -6z"/>
<path d="M1713 325 c0 -8 4 -15 9 -15 4 0 8 4 8 9 0 6 -4 12 -8 15 -5 3 -9 -1
-9 -9z"/>
<path d="M1515 320 c-3 -5 -1 -10 4 -10 6 0 11 5 11 10 0 6 -2 10 -4 10 -3 0
-8 -4 -11 -10z"/>
<path d="M3453 315 c0 -8 4 -12 9 -9 5 3 6 10 3 15 -9 13 -12 11 -12 -6z"/>
<path d="M3313 305 c0 -8 4 -15 9 -15 4 0 8 4 8 9 0 6 -4 12 -8 15 -5 3 -9 -1
-9 -9z"/>
<path d="M3388 293 c7 -3 16 -2 19 1 4 3 -2 6 -13 5 -11 0 -14 -3 -6 -6z"/>
<path d="M3277 276 c-17 -13 -17 -14 1 -18 12 -4 18 1 18 13 0 11 0 19 -1 19
0 0 -8 -7 -18 -14z"/>
<path d="M3475 280 c3 -5 8 -10 11 -10 2 0 4 5 4 10 0 6 -5 10 -11 10 -5 0 -7
-4 -4 -10z"/>
<path d="M3313 267 c0 -8 6 -14 14 -14 9 0 10 4 2 14 -6 7 -12 13 -14 13 -1 0
-2 -6 -2 -13z"/>
<path d="M1922 262 c-9 -6 -7 -13 10 -27 13 -11 17 -13 11 -5 -16 18 -17 34
-1 24 7 -4 8 -3 4 4 -8 14 -8 14 -24 4z"/>
<path d="M1735 240 c2 -27 10 -33 12 -10 1 11 -2 22 -6 24 -4 3 -7 -4 -6 -14z"/>
<path d="M1775 249 c-4 -6 -5 -12 -2 -15 2 -3 7 2 10 11 7 17 1 20 -8 4z"/>
<path d="M1801 237 c-13 -21 -12 -21 5 -5 10 10 16 20 13 22 -3 3 -11 -5 -18
-17z"/>
<path d="M3373 245 c0 -8 4 -12 9 -9 5 3 6 10 3 15 -9 13 -12 11 -12 -6z"/>
<path d="M1833 222 c1 -16 7 -29 14 -29 7 0 9 5 5 11 -3 6 -7 17 -8 24 -4 27
-12 22 -11 -6z"/>
<path d="M1887 239 c7 -7 15 -10 18 -7 3 3 -2 9 -12 12 -14 6 -15 5 -6 -5z"/>
<path d="M3235 241 c-3 -5 -2 -12 3 -15 5 -3 9 1 9 9 0 17 -3 19 -12 6z"/>
<path d="M3067 213 c3 -7 6 -13 8 -13 1 0 7 6 13 13 8 10 6 13 -7 13 -11 0
-17 -6 -14 -13z"/>
<path d="M3265 219 c-3 -4 2 -6 10 -5 21 3 28 13 10 13 -9 0 -18 -4 -20 -8z"/>
<path d="M2115 190 c4 -44 12 -47 12 -5 0 19 -4 35 -7 35 -4 0 -6 -14 -5 -30z"/>
<path d="M2897 214 c-3 -4 -20 -8 -37 -9 -18 -1 -37 -8 -43 -15 -10 -11 4 -6
39 14 1 1 12 -8 25 -19 13 -11 19 -13 12 -6 -10 11 -9 17 5 27 9 8 14 14 11
14 -3 0 -8 -3 -12 -6z"/>
<path d="M3210 216 c0 -2 8 -10 18 -17 15 -13 16 -12 3 4 -13 16 -21 21 -21
13z"/>
<path d="M1940 205 c0 -2 6 -8 13 -14 10 -8 14 -7 14 2 0 8 -6 14 -14 14 -7 0
-13 -1 -13 -2z"/>
<path d="M2047 199 c7 -7 15 -10 18 -7 3 3 -2 9 -12 12 -14 6 -15 5 -6 -5z"/>
<path d="M2230 202 c0 -5 7 -9 15 -9 8 0 12 4 9 9 -3 4 -9 8 -15 8 -5 0 -9 -4
-9 -8z"/>
<path d="M2997 192 c-15 -16 -15 -19 -2 -19 8 0 13 3 10 5 -3 3 0 11 6 19 17
20 5 16 -14 -5z"/>
<path d="M3125 199 c-3 -4 2 -6 10 -5 21 3 28 13 10 13 -9 0 -18 -4 -20 -8z"/>
<path d="M2190 196 c0 -2 8 -10 18 -17 15 -13 16 -12 3 4 -13 16 -21 21 -21
13z"/>
<path d="M2913 187 c0 -8 6 -14 14 -14 9 0 10 4 2 14 -6 7 -12 13 -14 13 -1 0
-2 -6 -2 -13z"/>
<path d="M2076 175 c-9 -26 -7 -32 5 -12 6 10 9 21 6 23 -2 3 -7 -2 -11 -11z"/>
<path d="M2160 175 c-11 -13 -11 -18 0 -28 10 -9 11 -9 6 1 -4 7 -2 19 4 27 7
8 10 15 7 15 -2 0 -10 -7 -17 -15z"/>
<path d="M2285 179 c-4 -6 -14 -8 -23 -4 -14 5 -14 3 1 -13 9 -10 14 -22 10
-27 -5 -4 -2 -5 5 -1 7 4 10 12 6 17 -3 5 0 16 6 24 7 8 10 15 7 15 -3 0 -9
-5 -12 -11z"/>
<path d="M2748 172 c3 -9 1 -13 -5 -9 -5 3 -10 0 -10 -8 0 -9 4 -11 11 -6 6 5
18 7 27 6 9 -2 16 3 16 11 0 11 -3 11 -16 1 -12 -10 -14 -9 -9 4 4 9 1 16 -7
16 -8 0 -11 -7 -7 -15z"/>
<path d="M3255 181 c-3 -5 -2 -12 3 -15 5 -3 9 1 9 9 0 17 -3 19 -12 6z"/>
<path d="M2614 158 c-4 -7 -3 -10 1 -5 5 4 18 -1 29 -10 21 -18 21 -18 2 5
-22 26 -23 26 -32 10z"/>
<path d="M2213 145 c0 -8 4 -12 9 -9 5 3 6 10 3 15 -9 13 -12 11 -12 -6z"/>
<path d="M2393 133 c0 -9 4 -10 14 -2 7 6 13 12 13 14 0 1 -6 2 -13 2 -8 0
-14 -6 -14 -14z"/>
<path d="M2553 135 c0 -8 4 -12 9 -9 4 3 8 9 8 15 0 5 -4 9 -8 9 -5 0 -9 -7
-9 -15z"/>
<path d="M3113 135 c0 -8 4 -12 9 -9 5 3 6 10 3 15 -9 13 -12 11 -12 -6z"/>
<path d="M2495 120 c3 -5 8 -10 11 -10 2 0 4 5 4 10 0 6 -5 10 -11 10 -5 0 -7
-4 -4 -10z"/>
<path d="M2746 118 c3 -4 9 -8 15 -8 5 0 9 4 9 8 0 5 -7 9 -15 9 -8 0 -12 -4
-9 -9z"/>
<path d="M2510 79 c0 -5 5 -7 10 -4 6 3 10 8 10 11 0 2 -4 4 -10 4 -5 0 -10
-5 -10 -11z"/>
</g>
</svg>
